<?xml version="1.0" encoding="UTF-8" standalone="no"?>
<svg xmlns:rdf="http://www.w3.org/1999/02/22-rdf-syntax-ns#" xmlns="http://www.w3.org/2000/svg" fill-rule="evenodd" height="595.4pt" width="595.3pt" version="1.1" xmlns:cc="http://creativecommons.org/ns#" xmlns:dc="http://purl.org/dc/elements/1.1/" viewBox="0 0 595.29901 595.37493">
 <defs>
  <radialGradient id="cx" gradientUnits="userSpaceOnUse" cy="535.8" cx="560.2" r="524.1">
   <stop stop-color="#ffeb8b" offset="0"/>
   <stop stop-color="#009fe0" offset=".9508"/>
   <stop stop-color="#009fe0" offset="1"/>
  </radialGradient>
  <radialGradient id="cj" gradientUnits="userSpaceOnUse" cy="547.8" cx="537" r="511.9">
   <stop stop-color="#fffbdc" offset="0"/>
   <stop stop-color="#ffeb94" offset=".6213"/>
   <stop stop-color="#ffeb94" offset="1"/>
  </radialGradient>
  <linearGradient id="by" y2="763.1" gradientUnits="userSpaceOnUse" x2="420.7" y1="841.9" x1="420.7">
   <stop stop-color="#00a060" offset="0"/>
   <stop stop-color="#92bd2c" offset=".5997"/>
   <stop stop-color="#92bd2c" offset="1"/>
  </linearGradient>
  <radialGradient id="bn" gradientUnits="userSpaceOnUse" cy="546.4" cx="535.3" r="80.36">
   <stop stop-color="#fff" offset="0"/>
   <stop stop-color="#fff" offset=".4583"/>
   <stop stop-color="#fff" offset="1"/>
  </radialGradient>
  <linearGradient id="bc" y2="533.7" gradientUnits="userSpaceOnUse" x2="529.5" y1="604.4" x1="545.5">
   <stop stop-color="#ffd65b" offset="0"/>
   <stop stop-color="#ffd65b" offset=".01809"/>
   <stop stop-color="#97c124" offset=".9462"/>
   <stop stop-color="#97c124" offset="1"/>
  </linearGradient>
  <linearGradient id="ar" y2="571.4" gradientUnits="userSpaceOnUse" x2="597.7" y1="571.4" x1="478.5">
   <stop stop-color="#ffce00" offset="0"/>
   <stop stop-color="#ffce00" offset="7.516e-9"/>
   <stop stop-color="#fc0" offset="1"/>
  </linearGradient>
  <linearGradient id="ag" y2="538" gradientUnits="userSpaceOnUse" x2="515.5" y1="612.7" x1="563.9">
   <stop stop-color="#ffd65b" offset="0"/>
   <stop stop-color="#ffd65b" offset=".2843"/>
   <stop stop-color="#97c124" offset=".7622"/>
   <stop stop-color="#97c124" offset="1"/>
  </linearGradient>
  <linearGradient id="v" y2="600.6" gradientUnits="userSpaceOnUse" x2="540" y1="553.2" x1="537.4">
   <stop stop-color="#ffe200" offset="0"/>
   <stop stop-color="#ffe200" offset=".08564"/>
   <stop stop-color="#ffe9c2" offset=".6891"/>
   <stop stop-color="#ffe9c2" offset="1"/>
  </linearGradient>
  <linearGradient id="k" y2="543.8" gradientUnits="userSpaceOnUse" x2="514.5" y1="618.5" x1="562.9">
   <stop stop-color="#ffd65b" offset="0"/>
   <stop stop-color="#ffd65b" offset=".2843"/>
   <stop stop-color="#97c124" offset=".7622"/>
   <stop stop-color="#97c124" offset="1"/>
  </linearGradient>
  <linearGradient id="cw" y2="606.5" gradientUnits="userSpaceOnUse" x2="539" y1="559.1" x1="536.4">
   <stop stop-color="#ffe200" offset="0"/>
   <stop stop-color="#ffe200" offset=".08564"/>
   <stop stop-color="#ffe9c2" offset=".6891"/>
   <stop stop-color="#ffe9c2" offset="1"/>
  </linearGradient>
  <linearGradient id="cs" y2="549.7" gradientUnits="userSpaceOnUse" x2="512.7" y1="624.4" x1="561.1">
   <stop stop-color="#ffd65b" offset="0"/>
   <stop stop-color="#ffd65b" offset=".2843"/>
   <stop stop-color="#97c124" offset=".7622"/>
   <stop stop-color="#97c124" offset="1"/>
  </linearGradient>
  <linearGradient id="cr" y2="612.4" gradientUnits="userSpaceOnUse" x2="537.3" y1="565" x1="534.6">
   <stop stop-color="#ffe200" offset="0"/>
   <stop stop-color="#ffe200" offset=".08565"/>
   <stop stop-color="#ffe9c2" offset=".6891"/>
   <stop stop-color="#ffe9c2" offset="1"/>
  </linearGradient>
  <linearGradient id="cq" y2="555.6" gradientUnits="userSpaceOnUse" x2="510.9" y1="630.3" x1="559.3">
   <stop stop-color="#ffd65b" offset="0"/>
   <stop stop-color="#ffd65b" offset=".2843"/>
   <stop stop-color="#97c124" offset=".7622"/>
   <stop stop-color="#97c124" offset="1"/>
  </linearGradient>
  <linearGradient id="cp" y2="618.3" gradientUnits="userSpaceOnUse" x2="535.5" y1="570.9" x1="532.8">
   <stop stop-color="#ffe200" offset="0"/>
   <stop stop-color="#ffe200" offset=".08563"/>
   <stop stop-color="#ffe9c2" offset=".6891"/>
   <stop stop-color="#ffe9c2" offset="1"/>
  </linearGradient>
  <linearGradient id="co" y2="700.4" gradientUnits="userSpaceOnUse" x2="300.6" y1="434.6" x1="370.8">
   <stop stop-color="#fff05c" offset="0"/>
   <stop stop-color="#fff05c" offset=".2978"/>
   <stop stop-color="#97c124" offset=".6655"/>
   <stop stop-color="#97c124" offset="1"/>
  </linearGradient>
  <linearGradient id="cn" y2="570.5" gradientUnits="userSpaceOnUse" x2="547.2" y1="570.5" x1="123.1">
   <stop stop-color="#ffd65b" offset="0"/>
   <stop stop-color="#ffd65b" offset="1.055e-8"/>
   <stop stop-color="#97c124" offset="1"/>
  </linearGradient>
  <linearGradient id="cm" y2="575.8" gradientUnits="userSpaceOnUse" x2="547.5" y1="575.8" x1="123">
   <stop stop-color="#fff483" offset="0"/>
   <stop stop-color="#fff483" offset="4.57e-10"/>
   <stop stop-color="#c5d106" offset="1"/>
  </linearGradient>
  <linearGradient id="cl" y2="628" gradientUnits="userSpaceOnUse" x2="409.5" y1="523.4" x1="429.2">
   <stop stop-color="#fff05c" offset="0"/>
   <stop stop-color="#fff05c" offset="1"/>
  </linearGradient>
  <linearGradient id="ck" y2="575.5" gradientUnits="userSpaceOnUse" x2="234.9" y1="455.3" x1="288.4">
   <stop stop-color="#9bc223" offset="0"/>
   <stop stop-color="#9bc223" offset=".2572"/>
   <stop stop-color="#fff168" offset=".6911"/>
   <stop stop-color="#fff168" offset="1"/>
  </linearGradient>
  <linearGradient id="ci" y2="560.9" gradientUnits="userSpaceOnUse" x2="235.6" y1="473" x1="258.8">
   <stop stop-color="#fff05c" offset="0"/>
   <stop stop-color="#fff05c" offset=".2925"/>
   <stop stop-color="#97c124" offset=".4583"/>
   <stop stop-color="#97c124" offset="1"/>
  </linearGradient>
  <linearGradient id="ch" y2="519.3" gradientUnits="userSpaceOnUse" x2="324.1" y1="519.3" x1="164.3">
   <stop stop-color="#ffd65b" offset="0"/>
   <stop stop-color="#97c124" offset="1"/>
  </linearGradient>
  <linearGradient id="cg" y2="554.7" gradientUnits="userSpaceOnUse" x2="224.7" y1="491.3" x1="241.5">
   <stop stop-color="#fff05c" offset="0"/>
   <stop stop-color="#fff05c" offset=".2925"/>
   <stop stop-color="#97c124" offset=".4583"/>
   <stop stop-color="#97c124" offset="1"/>
  </linearGradient>
  <linearGradient id="cf" y2="526" gradientUnits="userSpaceOnUse" x2="291.3" y1="526" x1="176.1">
   <stop stop-color="#ffd65b" offset="0"/>
   <stop stop-color="#97c124" offset="1"/>
  </linearGradient>
  <linearGradient id="ce" y2="619" gradientUnits="userSpaceOnUse" x2="404" y1="485.4" x1="439.3">
   <stop stop-color="#fff05c" offset="0"/>
   <stop stop-color="#fff05c" offset=".3560"/>
   <stop stop-color="#97c124" offset=".4929"/>
   <stop stop-color="#97c124" offset="1"/>
  </linearGradient>
  <linearGradient id="cd" y2="629.4" gradientUnits="userSpaceOnUse" x2="452.7" y1="479.6" x1="392.2">
   <stop stop-color="#bdd039" offset="0"/>
   <stop stop-color="#bdd039" offset=".2024"/>
   <stop stop-color="#97c124" offset="0.76"/>
   <stop stop-color="#97c124" offset="1"/>
  </linearGradient>
  <linearGradient id="cc" y2="618" gradientUnits="userSpaceOnUse" x2="413.8" y1="511.6" x1="433.9">
   <stop stop-color="#fff05c" offset="0"/>
   <stop stop-color="#fff05c" offset="1"/>
  </linearGradient>
  <linearGradient id="cb" y2="630.6" gradientUnits="userSpaceOnUse" x2="449.2" y1="502" x1="397.2">
   <stop stop-color="#bdd039" offset="0"/>
   <stop stop-color="#bdd039" offset=".07218"/>
   <stop stop-color="#97c124" offset=".7216"/>
   <stop stop-color="#97c124" offset="1"/>
  </linearGradient>
  <linearGradient id="ca" y2="642.4" gradientUnits="userSpaceOnUse" x2="445" y1="513.8" x1="393">
   <stop stop-color="#bdd039" offset="0"/>
   <stop stop-color="#bdd039" offset=".004201"/>
   <stop stop-color="#97c124" offset=".6536"/>
   <stop stop-color="#97c124" offset="1"/>
  </linearGradient>
  <linearGradient id="bz" y2="576.5" gradientUnits="userSpaceOnUse" x2="263.9" y1="464" x1="318.5">
   <stop stop-color="#97c124" offset="0"/>
   <stop stop-color="#97c124" offset="1"/>
  </linearGradient>
  <linearGradient id="bx" y2="534.4" gradientUnits="userSpaceOnUse" x2="361.5" y1="509.6" x1="215">
   <stop stop-color="#ffd65b" offset="0"/>
   <stop stop-color="#ffd65b" offset="1"/>
  </linearGradient>
  <linearGradient id="bw" y2="655.4" gradientUnits="userSpaceOnUse" x2="353.2" y1="517.4" x1="389.7">
   <stop stop-color="#fff05c" offset="0"/>
   <stop stop-color="#fff05c" offset=".2770"/>
   <stop stop-color="#97c124" offset=".5420"/>
   <stop stop-color="#97c124" offset="1"/>
  </linearGradient>
  <linearGradient id="bv" y2="520.9" gradientUnits="userSpaceOnUse" x2="357.5" y1="646.5" x1="387.7">
   <stop stop-color="#b0c52c" offset="0"/>
   <stop stop-color="#b0c52c" offset=".1841"/>
   <stop stop-color="#498235" offset=".6463"/>
   <stop stop-color="#498235" offset="1"/>
  </linearGradient>
  <linearGradient id="bu" y2="646.1" gradientUnits="userSpaceOnUse" x2="388.4" y1="534.7" x1="366.9">
   <stop stop-color="#479d37" offset="0"/>
   <stop stop-color="#ccca5b" offset="1"/>
  </linearGradient>
  <linearGradient id="bt" y2="543" gradientUnits="userSpaceOnUse" x2="367.8" y1="632.3" x1="389.2">
   <stop stop-color="#b0c52c" offset="0"/>
   <stop stop-color="#b0c52c" offset=".1255"/>
   <stop stop-color="#498235" offset=".6230"/>
   <stop stop-color="#498235" offset="1"/>
  </linearGradient>
  <linearGradient id="bs" y2="564.1" gradientUnits="userSpaceOnUse" x2="372.4" y1="632.7" x1="388.8">
   <stop stop-color="#b0c52c" offset="0"/>
   <stop stop-color="#b0c52c" offset=".1672"/>
   <stop stop-color="#498235" offset=".8148"/>
   <stop stop-color="#498235" offset="1"/>
  </linearGradient>
  <linearGradient id="br" y2="585.3" gradientUnits="userSpaceOnUse" x2="377.9" y1="632.7" x1="389.2">
   <stop stop-color="#b0c52c" offset="0"/>
   <stop stop-color="#b0c52c" offset=".2450"/>
   <stop stop-color="#5e8e36" offset="1"/>
  </linearGradient>
  <linearGradient id="bq" y2="604.3" gradientUnits="userSpaceOnUse" x2="385.3" y1="634.4" x1="392.5">
   <stop stop-color="#b0c52c" offset="0"/>
   <stop stop-color="#b0c52c" offset=".4644"/>
   <stop stop-color="#8dab33" offset="1"/>
  </linearGradient>
  <linearGradient id="bp" y2="471.2" gradientUnits="userSpaceOnUse" x2="251.4" y1="651.2" x1="277.1">
   <stop stop-color="#ffe200" offset="0"/>
   <stop stop-color="#ffe200" offset=".1662"/>
   <stop stop-color="#ffe77b" offset=".9993"/>
   <stop stop-color="#ffe77b" offset="1"/>
  </linearGradient>
  <linearGradient id="bo" y2="451.9" gradientUnits="userSpaceOnUse" x2="310.5" y1="671.9" x1="217.8">
   <stop stop-color="#ffd65b" offset="0"/>
   <stop stop-color="#ffd65b" offset=".2487"/>
   <stop stop-color="#62a733" offset=".5709"/>
   <stop stop-color="#62a733" offset="1"/>
  </linearGradient>
  <linearGradient id="bm" y2="553.5" gradientUnits="userSpaceOnUse" x2="488.4" y1="620.5" x1="488.4">
   <stop stop-color="#007a3d" offset="0"/>
   <stop stop-color="#007a3d" offset=".3240"/>
   <stop stop-color="#79b12e" offset="1"/>
  </linearGradient>
  <linearGradient id="bl" y2="617" gradientUnits="userSpaceOnUse" x2="495.3" y1="563.7" x1="481.1">
   <stop stop-color="#009240" offset="0"/>
   <stop stop-color="#009240" offset="1"/>
  </linearGradient>
  <linearGradient id="bk" y2="567.2" gradientUnits="userSpaceOnUse" x2="513.9" y1="622.7" x1="513.9">
   <stop stop-color="#007a3d" offset="0"/>
   <stop stop-color="#007a3d" offset=".3240"/>
   <stop stop-color="#79b12e" offset="1"/>
  </linearGradient>
  <linearGradient id="bj" y2="626.1" gradientUnits="userSpaceOnUse" x2="519.2" y1="575.8" x1="506.6">
   <stop stop-color="#006d3c" offset="0"/>
   <stop stop-color="#006d3c" offset=".3205"/>
   <stop stop-color="#009240" offset="1"/>
  </linearGradient>
  <linearGradient id="bi" y2="565.2" gradientUnits="userSpaceOnUse" x2="550.2" y1="594.2" x1="550.2">
   <stop stop-color="#007a3d" offset="0"/>
   <stop stop-color="#007a3d" offset=".3240"/>
   <stop stop-color="#79b12e" offset="1"/>
  </linearGradient>
  <linearGradient id="bh" y2="515.3" gradientUnits="userSpaceOnUse" x2="620.5" y1="575.6" x1="620.5">
   <stop stop-color="#007a3d" offset="0"/>
   <stop stop-color="#007a3d" offset=".1296"/>
   <stop stop-color="#92be27" offset=".8425"/>
   <stop stop-color="#92be27" offset="1"/>
  </linearGradient>
  <linearGradient id="bg" y2="575" gradientUnits="userSpaceOnUse" x2="627.2" y1="527.3" x1="615.3">
   <stop stop-color="#007a3d" offset="0"/>
   <stop stop-color="#007a3d" offset=".3331"/>
   <stop stop-color="#009240" offset=".9366"/>
   <stop stop-color="#009240" offset="1"/>
  </linearGradient>
  <linearGradient id="bf" y2="530.7" gradientUnits="userSpaceOnUse" x2="656.8" y1="564.5" x1="658.3">
   <stop stop-color="#00803c" offset="0"/>
   <stop stop-color="#77b02e" offset="1"/>
  </linearGradient>
  <linearGradient id="be" y2="566.1" gradientUnits="userSpaceOnUse" x2="662.5" y1="536.2" x1="655">
   <stop stop-color="#007a3d" offset="0"/>
   <stop stop-color="#007a3d" offset=".2947"/>
   <stop stop-color="#009240" offset=".8889"/>
   <stop stop-color="#009240" offset="1"/>
  </linearGradient>
  <linearGradient id="bd" y2="511.6" gradientUnits="userSpaceOnUse" x2="691" y1="580.4" x1="692.5">
   <stop stop-color="#007a3d" offset="0"/>
   <stop stop-color="#007a3d" offset=".3069"/>
   <stop stop-color="#92be27" offset=".8889"/>
   <stop stop-color="#92be27" offset="1"/>
  </linearGradient>
  <linearGradient id="bb" y2="584.1" gradientUnits="userSpaceOnUse" x2="255.7" y1="701" x1="175">
   <stop stop-color="#3aa937" offset="0"/>
   <stop stop-color="#3aa937" offset=".2324"/>
   <stop stop-color="#498235" offset=".5987"/>
   <stop stop-color="#498235" offset="1"/>
  </linearGradient>
  <linearGradient id="ba" y2="592.8" gradientUnits="userSpaceOnUse" x2="209.2" y1="666.3" x1="219.7">
   <stop stop-color="#ffe200" offset="0"/>
   <stop stop-color="#ffe200" offset=".1879"/>
   <stop stop-color="#fbba00" offset=".9774"/>
   <stop stop-color="#fbba00" offset="1"/>
  </linearGradient>
  <linearGradient id="az" y2="481.3" gradientUnits="userSpaceOnUse" x2="300.8" y1="677" x1="218.3">
   <stop stop-color="#ffd65b" offset="0"/>
   <stop stop-color="#ffd65b" offset=".2880"/>
   <stop stop-color="#62a733" offset=".5541"/>
   <stop stop-color="#62a733" offset="1"/>
  </linearGradient>
  <linearGradient id="ay" y2="478.5" gradientUnits="userSpaceOnUse" x2="326.5" y1="684.6" x1="194.9">
   <stop stop-color="#ffd65b" offset="0"/>
   <stop stop-color="#ffd65b" offset=".2333"/>
   <stop stop-color="#97c124" offset=".6832"/>
   <stop stop-color="#97c124" offset="1"/>
  </linearGradient>
  <linearGradient id="ax" y2="507.4" gradientUnits="userSpaceOnUse" x2="301.4" y1="684.4" x1="198.2">
   <stop stop-color="#ffd65b" offset="0"/>
   <stop stop-color="#ffd65b" offset=".1853"/>
   <stop stop-color="#97c124" offset=".6949"/>
   <stop stop-color="#97c124" offset="1"/>
  </linearGradient>
  <linearGradient id="aw" y2="593.5" gradientUnits="userSpaceOnUse" x2="409.2" y1="637.3" x1="409.2">
   <stop stop-color="#007a3d" offset="0"/>
   <stop stop-color="#007a3d" offset=".3240"/>
   <stop stop-color="#79b12e" offset="1"/>
  </linearGradient>
  <linearGradient id="av" y2="594.9" gradientUnits="userSpaceOnUse" x2="553" y1="569" x1="546.5">
   <stop stop-color="#006d3c" offset="0"/>
   <stop stop-color="#006d3c" offset=".3413"/>
   <stop stop-color="#009240" offset=".9448"/>
   <stop stop-color="#009240" offset="1"/>
  </linearGradient>
  <linearGradient id="au" y2="539.1" gradientUnits="userSpaceOnUse" x2="277.9" y1="685.8" x1="189">
   <stop stop-color="#ffd65b" offset="0"/>
   <stop stop-color="#ffd65b" offset=".04093"/>
   <stop stop-color="#97c124" offset=".5625"/>
   <stop stop-color="#97c124" offset="1"/>
  </linearGradient>
  <linearGradient id="at" y2="570.2" gradientUnits="userSpaceOnUse" x2="244.8" y1="683.7" x1="191.5">
   <stop stop-color="#ffd65b" offset="0"/>
   <stop stop-color="#ffd65b" offset=".3068"/>
   <stop stop-color="#97c124" offset=".5672"/>
   <stop stop-color="#97c124" offset="1"/>
  </linearGradient>
  <linearGradient id="as" y2="511.9" gradientUnits="userSpaceOnUse" x2="403.5" y1="752" x1="437.8">
   <stop stop-color="#ffe200" offset="0"/>
   <stop stop-color="#ffe200" offset=".1761"/>
   <stop stop-color="#fff8bd" offset=".6713"/>
   <stop stop-color="#fff8bd" offset="1"/>
  </linearGradient>
  <linearGradient id="aq" y2="516.5" gradientUnits="userSpaceOnUse" x2="403.2" y1="756.7" x1="437.6">
   <stop stop-color="#ffe200" offset="0"/>
   <stop stop-color="#ffe200" offset=".1766"/>
   <stop stop-color="#ffe77b" offset=".6735"/>
   <stop stop-color="#ffe77b" offset="1"/>
  </linearGradient>
  <radialGradient id="ap" gradientUnits="userSpaceOnUse" cy="533.6" cx="553.8" r="477.9">
   <stop stop-color="#d7ae16" offset="0"/>
   <stop stop-color="#ffe200" offset=".9384"/>
   <stop stop-color="#ffe200" offset="1"/>
  </radialGradient>
  <linearGradient id="ao" y2="537.8" gradientUnits="userSpaceOnUse" x2="401.9" y1="730.4" x1="429.4">
   <stop stop-color="#ffe31d" offset="0"/>
   <stop stop-color="#ffe77b" offset=".6830"/>
   <stop stop-color="#ffe77b" offset="1"/>
  </linearGradient>
  <linearGradient id="an" y2="645" gradientUnits="userSpaceOnUse" x2="409.7" y1="798.4" x1="431.6">
   <stop stop-color="#aaab25" offset="0"/>
   <stop stop-color="#aaab25" offset=".07761"/>
   <stop stop-color="#007776" offset=".5246"/>
   <stop stop-color="#007776" offset="1"/>
  </linearGradient>
  <linearGradient id="am" y2="705.3" gradientUnits="userSpaceOnUse" x2="420.6" y1="806.5" x1="420.6">
   <stop stop-color="#cdd300" offset="0"/>
   <stop stop-color="#cdd300" offset=".08611"/>
   <stop stop-color="#339139" offset="1"/>
  </linearGradient>
  <linearGradient id="al" y2="789.4" gradientUnits="userSpaceOnUse" x2="435.5" y1="724.2" x1="449.1">
   <stop stop-color="#fae221" offset="0"/>
   <stop stop-color="#12a339" offset=".9778"/>
   <stop stop-color="#12a339" offset="1"/>
  </linearGradient>
  <linearGradient id="ak" y2="788.5" gradientUnits="userSpaceOnUse" x2="410.9" y1="730.7" x1="422.9">
   <stop stop-color="#e3da25" offset="0"/>
   <stop stop-color="#12a339" offset=".9336"/>
   <stop stop-color="#12a339" offset="1"/>
  </linearGradient>
  <linearGradient id="aj" y2="789.2" gradientUnits="userSpaceOnUse" x2="389.4" y1="734.6" x1="400.8">
   <stop stop-color="#d1d229" offset="0"/>
   <stop stop-color="#12a339" offset=".8423"/>
   <stop stop-color="#12a339" offset="1"/>
  </linearGradient>
  <linearGradient id="ai" y2="772.6" gradientUnits="userSpaceOnUse" x2="371.8" y1="740" x1="378.6">
   <stop stop-color="#b8c92d" offset="0"/>
   <stop stop-color="#36a839" offset="1"/>
  </linearGradient>
  <linearGradient id="ah" y2="775.8" gradientUnits="userSpaceOnUse" x2="348.6" y1="742.6" x1="355.5">
   <stop stop-color="#9dc130" offset="0"/>
   <stop stop-color="#12a339" offset=".8346"/>
   <stop stop-color="#12a339" offset="1"/>
  </linearGradient>
  <linearGradient id="af" y2="777" gradientUnits="userSpaceOnUse" x2="330.1" y1="743.8" x1="337">
   <stop stop-color="#9dc130" offset="0"/>
   <stop stop-color="#12a339" offset=".8346"/>
   <stop stop-color="#12a339" offset="1"/>
  </linearGradient>
  <linearGradient id="ae" y2="789.7" gradientUnits="userSpaceOnUse" x2="457.6" y1="720.6" x1="472">
   <stop stop-color="#ffe71f" offset="0"/>
   <stop stop-color="#ffe71f" offset=".01087"/>
   <stop stop-color="#2ea739" offset="1"/>
  </linearGradient>
  <linearGradient id="ad" y2="797.3" gradientUnits="userSpaceOnUse" x2="477.7" y1="715.7" x1="494.7">
   <stop stop-color="#ffe71f" offset="0"/>
   <stop stop-color="#ffe71f" offset=".1222"/>
   <stop stop-color="#12a339" offset=".9919"/>
   <stop stop-color="#12a339" offset="1"/>
  </linearGradient>
  <linearGradient id="ac" y2="797.7" gradientUnits="userSpaceOnUse" x2="507.5" y1="710.3" x1="525.7">
   <stop stop-color="#ffe71f" offset="0"/>
   <stop stop-color="#ffe71f" offset=".2442"/>
   <stop stop-color="#3eaa38" offset="1"/>
  </linearGradient>
  <linearGradient id="ab" y2="802.6" gradientUnits="userSpaceOnUse" x2="539" y1="706.8" x1="559">
   <stop stop-color="#ffe71f" offset="0"/>
   <stop stop-color="#ffe71f" offset=".3267"/>
   <stop stop-color="#46ab38" offset="1"/>
  </linearGradient>
  <linearGradient id="aa" y2="807.8" gradientUnits="userSpaceOnUse" x2="570.6" y1="704.3" x1="592.1">
   <stop stop-color="#ffe71f" offset="0"/>
   <stop stop-color="#ffe71f" offset=".3893"/>
   <stop stop-color="#4eac37" offset="1"/>
  </linearGradient>
  <linearGradient id="z" y2="817.6" gradientUnits="userSpaceOnUse" x2="610.1" y1="702.8" x1="634">
   <stop stop-color="#ffe71f" offset="0"/>
   <stop stop-color="#ffe71f" offset=".4361"/>
   <stop stop-color="#45ab38" offset="1"/>
  </linearGradient>
  <linearGradient id="y" y2="820.9" gradientUnits="userSpaceOnUse" x2="644.1" y1="705.3" x1="668.1">
   <stop stop-color="#ffe71f" offset="0"/>
   <stop stop-color="#ffe71f" offset="0.47"/>
   <stop stop-color="#57ae37" offset="1"/>
  </linearGradient>
  <linearGradient id="x" y2="820.7" gradientUnits="userSpaceOnUse" x2="671.1" y1="729.4" x1="690.1">
   <stop stop-color="#ffe71f" offset="0"/>
   <stop stop-color="#ffe71f" offset=".3888"/>
   <stop stop-color="#6eb435" offset="1"/>
  </linearGradient>
  <linearGradient id="w" y2="274.8" gradientUnits="userSpaceOnUse" x2="526.9" y1="404.8" x1="489.6">
   <stop stop-color="#bbe4f7" offset="0"/>
   <stop stop-color="#bbe4f7" offset=".2382"/>
   <stop stop-color="#eaeef8" offset=".9275"/>
   <stop stop-color="#eaeef8" offset="1"/>
  </linearGradient>
  <linearGradient id="u" y2="379.7" gradientUnits="userSpaceOnUse" x2="627.7" y1="473" x1="600.9">
   <stop stop-color="#bbe4f7" offset="0"/>
   <stop stop-color="#bbe4f7" offset=".1898"/>
   <stop stop-color="#e9eef8" offset="1"/>
  </linearGradient>
  <linearGradient id="t" y2="616.2" gradientUnits="userSpaceOnUse" x2="419.8" y1="742.8" x1="422.6">
   <stop stop-color="#007a3d" offset="0"/>
   <stop stop-color="#007a3d" offset=".3224"/>
   <stop stop-color="#92be27" offset=".8159"/>
   <stop stop-color="#92be27" offset="1"/>
  </linearGradient>
  <linearGradient id="s" y2="345.1" gradientUnits="userSpaceOnUse" x2="303.5" y1="434.4" x1="359.2">
   <stop stop-color="#bbe4f7" offset="0"/>
   <stop stop-color="#bbe4f7" offset=".4592"/>
   <stop stop-color="#c5e8f8" offset="1"/>
  </linearGradient>
  <linearGradient id="r" y2="351.7" gradientUnits="userSpaceOnUse" x2="163.1" y1="366.1" x1="172.1">
   <stop stop-color="#bbe4f7" offset="0"/>
   <stop stop-color="#bbe4f7" offset=".08961"/>
   <stop stop-color="#cfe9f8" offset="1"/>
  </linearGradient>
  <linearGradient id="q" y2="328.5" gradientUnits="userSpaceOnUse" x2="200.5" y1="357.4" x1="218.5">
   <stop stop-color="#bbe4f7" offset="0"/>
   <stop stop-color="#bbe4f7" offset=".08961"/>
   <stop stop-color="#cfe9f8" offset="1"/>
  </linearGradient>
  <linearGradient id="p" y2="340.1" gradientUnits="userSpaceOnUse" x2="189.8" y1="369" x1="207.8">
   <stop stop-color="#bbe4f7" offset="0"/>
   <stop stop-color="#bbe4f7" offset=".08962"/>
   <stop stop-color="#cfe9f8" offset="1"/>
  </linearGradient>
  <linearGradient id="o" y2="346.8" gradientUnits="userSpaceOnUse" x2="176.3" y1="375.9" x1="194.5">
   <stop stop-color="#bbe4f7" offset="0"/>
   <stop stop-color="#bbe4f7" offset=".1937"/>
   <stop stop-color="#d4ebf8" offset="1"/>
  </linearGradient>
  <linearGradient id="n" y2="346.7" gradientUnits="userSpaceOnUse" x2="214.6" y1="358.8" x1="222.2">
   <stop stop-color="#bee6f8" offset="0"/>
   <stop stop-color="#d1eaf8" offset="1"/>
  </linearGradient>
  <linearGradient id="m" y2="361.5" gradientUnits="userSpaceOnUse" x2="233.8" y1="377.7" x1="244">
   <stop stop-color="#bbe4f7" offset="0"/>
   <stop stop-color="#bbe4f7" offset=".5054"/>
   <stop stop-color="#c4e7f8" offset="1"/>
  </linearGradient>
  <linearGradient id="l" y2="368" gradientUnits="userSpaceOnUse" x2="245.6" y1="374.6" x1="249.7">
   <stop stop-color="#bbe4f7" offset="0"/>
   <stop stop-color="#bbe4f7" offset=".5053"/>
   <stop stop-color="#c4e7f8" offset="1"/>
  </linearGradient>
  <linearGradient id="j" y2="880.8" gradientUnits="userSpaceOnUse" x2="207.4" y1="738.2" x1="273.1">
   <stop stop-color="#ffe71f" offset="0"/>
   <stop stop-color="#ffe71f" offset=".09005"/>
   <stop stop-color="#12a339" offset=".4585"/>
   <stop stop-color="#12a339" offset="1"/>
  </linearGradient>
  <linearGradient id="i" y2="850.5" gradientUnits="userSpaceOnUse" x2="183.8" y1="745.7" x1="232">
   <stop stop-color="#ecdd25" offset="0"/>
   <stop stop-color="#12a339" offset=".4178"/>
   <stop stop-color="#12a339" offset="1"/>
  </linearGradient>
  <linearGradient id="h" y2="879.6" gradientUnits="userSpaceOnUse" x2="249.5" y1="746.8" x1="310.6">
   <stop stop-color="#ffe71f" offset="0"/>
   <stop stop-color="#ffe71f" offset=".1494"/>
   <stop stop-color="#12a339" offset=".5459"/>
   <stop stop-color="#12a339" offset="1"/>
  </linearGradient>
  <linearGradient id="g" y2="875.4" gradientUnits="userSpaceOnUse" x2="291.2" y1="758.2" x1="345.2">
   <stop stop-color="#ffe71f" offset="0"/>
   <stop stop-color="#ffe71f" offset=".2010"/>
   <stop stop-color="#12a339" offset=".6499"/>
   <stop stop-color="#12a339" offset="1"/>
  </linearGradient>
  <linearGradient id="f" y2="873.5" gradientUnits="userSpaceOnUse" x2="336.1" y1="766.1" x1="385.6">
   <stop stop-color="#ffe71f" offset="0"/>
   <stop stop-color="#ffe71f" offset=".2998"/>
   <stop stop-color="#12a339" offset=".7899"/>
   <stop stop-color="#12a339" offset="1"/>
  </linearGradient>
  <linearGradient id="e" y2="871.5" gradientUnits="userSpaceOnUse" x2="382.9" y1="778" x1="426">
   <stop stop-color="#ffe71f" offset="0"/>
   <stop stop-color="#ffe71f" offset=".4027"/>
   <stop stop-color="#12a339" offset=".9662"/>
   <stop stop-color="#12a339" offset="1"/>
  </linearGradient>
  <linearGradient id="d" y2="865.5" gradientUnits="userSpaceOnUse" x2="424.6" y1="793.7" x1="457.6">
   <stop stop-color="#ffe71f" offset="0"/>
   <stop stop-color="#ffe71f" offset=".5101"/>
   <stop stop-color="#8dbb33" offset="1"/>
  </linearGradient>
  <linearGradient id="c" y2="861.3" gradientUnits="userSpaceOnUse" x2="467.1" y1="806.1" x1="492.5">
   <stop stop-color="#ffe71f" offset="0"/>
   <stop stop-color="#ffe71f" offset=".7212"/>
   <stop stop-color="#d7d529" offset="1"/>
  </linearGradient>
  <linearGradient id="b" y2="857.3" gradientUnits="userSpaceOnUse" x2="516.1" y1="816.4" x1="534.9">
   <stop stop-color="#ffe71f" offset="0"/>
   <stop stop-color="#ffe71f" offset="1"/>
  </linearGradient>
  <linearGradient id="a" y2="558.1" gradientUnits="userSpaceOnUse" x2="687.6" y1="757.6" x1="409.8">
   <stop stop-color="#ebc100" offset="0"/>
   <stop stop-color="#cc9323" offset=".4249"/>
   <stop stop-color="#cc9323" offset="1"/>
  </linearGradient>
  <linearGradient id="cv" y2="706.5" gradientUnits="userSpaceOnUse" x2="405.9" y1="885.6" x1="435.5">
   <stop stop-color="#ffe200" offset="0"/>
   <stop stop-color="#ffe200" offset=".3373"/>
   <stop stop-color="#d7ae16" offset=".6871"/>
   <stop stop-color="#d7ae16" offset="1"/>
  </linearGradient>
  <linearGradient id="cu" y2="693.9" gradientUnits="userSpaceOnUse" x2="623.9" y1="612.2" x1="615.4">
   <stop stop-color="#459c37" offset="0"/>
   <stop stop-color="#459c37" offset=".3449"/>
   <stop stop-color="#6ebe9c" offset="1"/>
  </linearGradient>
  <linearGradient id="ct" y2="558.2" gradientUnits="userSpaceOnUse" x2="485.1" y1="743.2" x1="517.2">
   <stop stop-color="#ffe666" offset="0"/>
   <stop stop-color="#ffe77b" offset=".1461"/>
   <stop stop-color="#ffe77b" offset="1"/>
  </linearGradient>
 </defs>
 <g transform="translate(-123 -246.6)">
  <path fill="url(#cx)" d="m718.3 578h-595.2v-331.3l595.2-.08v331.4z"/>
  <path fill="#fff" d="m519.9 564.6-268.5 17.52.014.041h161.5l106.9-14.86 1.353 5.39-33.1 9.472h19.31l15.15-5.43 2.713 5.389-.081.041h81.51l-.079-.041 1.356-6.739 18.49 6.78h15.88l-33.02-9.472 1.358-5.39 105.2 14.86h2.332v-11.19l-107.6-7.711v-6.736l107.6-7.019v-10.63l-107.6 14.95-1.943-6.946 109.5-31.9v-10.11l-110.3 39.52-3.654-7.139 113.9-59.12v-12.76l-114.3 70.93-5.396-7.853 119.7-96.34v-18.65l-119.8 114.8-5.843-4.767 125.6-157.1v-32.46l-127.9 188.9-5.422-2.696 133.3-269.2v-4.327h-23.33l-112.7 270.8-5.425-1.351 68.13-269.4h-22.02l-50.17 268h-5.424l9.598-267.7-21.98-.296 8.312 268-6.776 1.346-49.06-269.4-20.88-.093 67.23 269.5-5.425 2.697-113.8-272.2h-24.34l136.1 270.9-7.478 5.285-190.1-276.2h-26.95l215 275.7-4.454 5.906-304.9-281.6h-31.99l334.5 282.2-3.564 6.202-403.4-240.6v24.79l401.3 217.8-1.783 6.794-399.5-138.6v21.42l397.7 118.9-.916 8.213-396.8-41.64v20.19l396.8 25.49v6.736z"/>
  <path fill="url(#cj)" d="m519.9 560.5-268.5 17.52.014.042h161.5l106.9-14.86 1.353 5.391-33.1 9.473h19.31l15.15-5.431 2.713 5.389-.081.042h81.51l-.079-.042 1.356-6.737 18.49 6.779h15.88l-33.02-9.473 1.358-5.391 105.2 14.86h2.332v-11.19l-107.6-7.714v-6.735l107.6-7.02v-10.63l-107.6 14.95-1.358-5.388 108.9-31.17v-12.4l-110.2 39.4-2.711-5.388 113-59.33v-14.3l-114.3 70.93-4.069-5.39 118.4-97.67v-19.79l-119.8 114.8-5.423-4.042 125.2-157.8v-32.46l-127.9 188.9-5.422-2.696 131.3-269.3h-23.36l-110.6 266.6-5.425-1.348 64.69-265.3h-22.02l-46.73 263.9h-5.424l7.371-263.9h-20.3l8.865 263.9-6.776 1.349-46.86-265.3h-19.63l63.78 265.3-5.425 2.694-109.2-268h-24.34l130.9 268-6.779 4.043-184.7-272h-26.56l208.6 273.3-4.069 5.389-298.4-278.7h-31.94l327.6 280.1-2.711 5.39-403.6-241.9v24.78l400.9 219.8-1.354 6.737-399.5-140.5v21.42l398.2 121.8-1.353 5.388-396.8-41.63v20.19l396.8 25.48v6.738z"/>
  <path fill="url(#by)" d="m123.1 767.6s472.1 26.84 595.2-4.519v78.8l-595.2-.048.044-74.23z"/>
  <path fill="url(#bn)" d="m601.9 554.8c0 20.22-16.49 36.62-36.83 36.62s-36.83-16.4-36.83-36.62c0-20.23 16.49-36.62 36.83-36.62s36.83 16.4 36.83 36.62z"/>
  <path fill="url(#bc)" d="m476.1 545.7s93.5 5.354 122.8 27.54c-32.48 13-60.22 19.13-60.22 19.13s-47.54-39.78-62.6-46.66z"/>
  <path fill="url(#ar)" d="m478.5 548.1s90.78 5.355 119.2 27.54c-31.54 13-58.47 19.12-58.47 19.12s-46.16-39.78-60.78-46.66z"/>
  <path fill="url(#ag)" d="m490.3 554.3s75.24 4.825 98.83 24.81c-26.14 11.72-48.46 17.23-48.46 17.23s-38.26-35.84-50.37-42.04z"/>
  <path fill="url(#v)" d="m489.3 555.9s75.24 4.823 98.83 24.81c-26.14 11.72-48.46 17.23-48.46 17.23s-38.26-35.84-50.37-42.04z"/>
  <path fill="url(#k)" d="m489.3 560.1s75.24 4.825 98.83 24.81c-26.14 11.72-48.46 17.23-48.46 17.23s-38.26-35.84-50.37-42.04z"/>
  <path fill="url(#cw)" d="m488.3 561.7s75.24 4.823 98.83 24.81c-26.14 11.72-48.46 17.23-48.46 17.23s-38.26-35.84-50.37-42.04z"/>
  <path fill="url(#cs)" d="m487.5 566.1s75.24 4.825 98.83 24.81c-26.14 11.72-48.46 17.23-48.46 17.23s-38.26-35.84-50.37-42.04z"/>
  <path fill="url(#cr)" d="m486.5 567.7s75.24 4.825 98.83 24.81c-26.14 11.72-48.46 17.23-48.46 17.23s-38.26-35.84-50.37-42.04z"/>
  <path fill="url(#cq)" d="m485.7 572s75.24 4.825 98.83 24.81c-26.14 11.72-48.46 17.23-48.46 17.23s-38.26-35.84-50.37-42.04z"/>
  <path fill="url(#cp)" d="m484.7 573.6s75.24 4.824 98.83 24.81c-26.14 11.72-48.46 17.23-48.46 17.23s-38.26-35.84-50.37-42.04z"/>
  <path fill="url(#co)" d="m123.6 487s19.23-.766 42.31 3.824c31.65-11.68 93.14-16.11 135 7.817 38.32-1.772 149.1 9.291 246.8 90.38-16.92 5.355-343.4 103.8-423.4 47.15 0-92.56-.77-149.2-.77-149.2z"/>
  <path fill="url(#cn)" d="m123.1 490s19.23-.766 42.31 3.824c31.65-11.68 93.14-16.11 135 7.817 38.32-1.772 149.1 9.292 246.8 90.38-16.92 5.356-343.4 103.8-423.4 47.15 0-92.56-.768-149.2-.768-149.2z"/>
  <path fill="url(#cm)" d="m123 490s9.944.85 33.02 5.44c33.86-9.747 110.9-13.29 151 11.52 40.54-2.215 144.4 6.203 240.4 88.02-16.92 5.357-344.5 108.2-424.5 51.61.122.107.001-156.6.001-156.6z"/>
  <path fill="url(#cl)" d="m328.3 542.9s111.6-.884 187 68.94c-33.23-33.15-88.01-70.69-191.7-72.15 4.065.302 4.781 3.21 4.781 3.21z"/>
  <path fill="url(#ck)" d="m168.5 492.7c18.71-4.725 117.9-31.9 186.2 53.16-10.69-1.772-71.29-4.431-82.87-3.544-13.37-9.747-68.02-43.71-103.4-49.62z"/>
  <path fill="url(#ci)" d="m167.3 494.8s99.51-23.63 159.8 47.55c-7.128 1.772-20.79-1.478-20.79-1.478s-31.19-55.82-139-46.07z"/>
  <path fill="url(#ch)" d="m164.3 497.2s99.51-23.63 159.8 47.55c-7.128 1.772-20.79-1.477-20.79-1.477s-31.19-55.82-139-46.08z"/>
  <path fill="url(#cg)" d="m175.5 507s71.72-17.03 115.2 34.28c-5.139 1.279-14.99-1.065-14.99-1.065s-22.48-40.24-100.2-33.21z"/>
  <path fill="url(#cf)" d="m176.1 510s71.72-17.03 115.2 34.28c-5.137 1.277-14.99-1.065-14.99-1.065s-22.48-40.24-100.2-33.21z"/>
  <path fill="url(#ce)" d="m318.8 512.8s128.5 7.234 211 82.26c-36.24-35.44-94.6-76.94-216.4-85.8 4.753.59 5.347 3.544 5.347 3.544z"/>
  <path fill="url(#cd)" d="m321.8 518.1s127.7 1.772 210.3 79.15c-31.49-33.08-95.05-78.56-219.2-85.65 4.752.59 8.91 6.498 8.91 6.498z"/>
  <path fill="url(#cc)" d="m332.4 531s112.3.86 187.6 70.68c-33.23-33.15-88.66-72.44-192.4-73.9 4.065.303 4.781 3.212 4.781 3.212z"/>
  <path fill="url(#cb)" d="m335.3 536.2s108.2-5.971 183.7 66.21c-29.04-31.09-85.6-71.82-191.7-72.15 4.065.301 8.01 5.942 8.01 5.942z"/>
  <path fill="url(#ca)" d="m331.2 548s108.2-5.971 183.7 66.21c-29.04-31.08-85.01-71.24-191.7-72.15 4.064.302 8.009 5.942 8.009 5.942z"/>
  <path fill="url(#bz)" d="m222 484.5s94.73-5.865 138.5 71.49c-6.92.702-17.66-1.11-17.66-1.11s-17.76-63.88-120.8-70.38z"/>
  <path fill="url(#bx)" d="m219 486.2s94.73-5.865 138.5 71.49c-6.92.702-17.66-1.11-17.66-1.11s-17.76-63.88-120.8-70.38z"/>
  <path fill="url(#bw)" d="m301.3 568.1s-23.17-20.38-35.64-26.58c47.23-2.657 82.5.586 113.8 8.567 40.6 10.36 73.71 31.74 97.87 60.1-10.25 3.986-19.6 10.19-19.6 10.19s-42.33 11.08-52.13 11.96c-18.71-8.86-75.74-36.77-104.3-64.24z"/>
  <path fill="url(#bv)" d="m301.3 570.4s-23.17-20.38-35.64-26.58c47.23-2.657 82.5.585 113.8 8.567 40.6 10.36 73.71 30.7 97.87 59.07 8.91 2.953-10.54 7.089-10.54 7.089s-48.72 5.021-58.52 5.907c-18.71-8.86-78.42-26.58-106.9-54.05z"/>
  <path fill="url(#bu)" d="m282.6 553c90-10.63 168.1 22.45 190.1 58.48-44.56 12.4-47.29 16.97-61.55 17.86-33.86 3.543-56.38-10.76-128.6-76.34z"/>
  <path fill="url(#bt)" d="m306.1 571.5s96.14-11.04 157.6 42.89c-34.59-38.49-89.2-56.21-170.5-53.14 7.736 6.205 12.86 10.26 12.86 10.26z"/>
  <path fill="url(#bs)" d="m323.8 588.8s77.04-7.504 126.3 29.15c-27.72-26.16-73.86-41.07-139-38.99 6.2 4.216 12.68 9.838 12.68 9.838z"/>
  <path fill="url(#br)" d="m341.4 603.7s57.61-4.578 94.47 17.78c-20.72-15.96-55.83-26.17-104.6-24.9 4.637 2.571 10.08 7.118 10.08 7.118z"/>
  <path fill="url(#bq)" d="m363.4 616.7s35.51-2.748 58.22 10.68c-12.77-9.581-35.32-16.86-65.35-16.1 2.859 1.543 7.126 5.418 7.126 5.418z"/>
  <path fill="#ffefb0" d="m123 486.6s85.3-6.285 180.9 83.21c71.24 68.77 99.38 59.74 101.6 59.37 0 0-22.14 10.55-92.68-38.1-88.74-61.21-96.29-89.16-189.9-90.04v-14.43z"/>
  <path fill="url(#bp)" d="m123 489.7s85.3-6.374 180.9 83.12c67.5 65.16 101.6 59.37 101.6 59.37s-24.06 8.86-92.68-38.1c-88.96-60.89-96.29-89.16-189.9-90.05v-14.33z"/>
  <path fill="url(#bo)" d="m123.1 491.8s88.22-1.772 181.8 84.18c72.18 64.68 100.4 53.61 100.4 53.61s-23.39 16.66-94.2-38.55c-84.1-65.58-106.9-73.53-188-80.62.12-.119-.038-18.62-.038-18.62z"/>
  <path fill="#e8df04" d="m462.3 615.5s-3.979-11.52 0-32.78c3.979-21.27 15.92-30.13 18.9-23.04 2.986 7.09 9.951 9.747 12.94-5.315 2.983-15.06 10.94-3.545 14.92 7.087 3.981 10.63 6.963 38.99 6.963 38.99s-41.79 14.18-53.73 15.06z"/>
  <path fill="#c8d21c" d="m465.2 617.7s-3.564-11.52 0-32.78 14.26-30.13 16.93-23.04c2.674 7.088 8.911 9.746 11.58-5.319 2.673-15.06 9.804-3.543 13.37 7.091 3.565 10.63 6.239 38.99 6.239 38.99s-37.43 14.18-48.12 15.06z"/>
  <path fill="url(#bm)" d="m464.7 620.5s-3.629-11.3 0-32.15c3.628-20.85 14.51-29.54 17.24-22.59 2.718 6.95 9.068 9.559 11.79-5.213s9.98-3.475 13.61 6.951c3.628 10.42 6.349 38.23 6.349 38.23s-38.1 13.9-48.98 14.77z"/>
  <path fill="url(#bl)" d="m467 613.2c.301-.113 0-10.19 1.437-22.74.505-4.403 4.247-20.89 10.44-17.07 3.247 5.908.94 13.4 2.565 19.87 6.794 5.463 4.041-12.68 7.201-14.11 1.593-.723 1.758 2.107 3.443 1.658.951-.257 1.977-2.595 2.444-3.586 1.189-2.532 1.595-7.007 3.757-8.768 5.958-4.844 8.314 8.66 8.812 12.98.842 7.285 4.824 15.48-.442 19.81-2.315 1.9-31.93 9.104-39.65 11.96z"/>
  <path fill="#e8df04" d="m493.4 618.7s-3.052-9.864 0-28.08c3.053-18.22 12.21-25.81 14.5-19.74 2.289 6.074 5.843 9.163 8.13-3.741 2.29-12.9 11.65-2.462 14.7 6.647 3.056 9.104 5.347 30.12 5.347 30.12s-33.52 14.03-42.68 14.78z"/>
  <path fill="#c8d21c" d="m493 620.9s-3.055-9.492 0-27.02c3.053-17.53 12.21-24.83 14.5-18.99 2.289 5.843 7.633 8.035 9.924-4.38s8.396-2.921 11.45 5.842c3.055 8.762 5.344 32.13 5.344 32.13s-32.06 11.68-41.22 12.41z"/>
  <path fill="url(#bk)" d="m493.9 622.7s-3.054-9.343 0-26.6c3.053-17.25 12.21-24.44 14.5-18.69s7.633 7.908 9.925-4.311c2.29-12.22 8.396-2.876 11.45 5.751 3.056 8.623 5.344 31.63 5.344 31.63s-32.06 11.5-41.22 12.22z"/>
  <path fill="url(#bj)" d="m497.5 623.6s-2.363-7.627 0-21.71c2.361-14.08 9.443-19.95 11.21-15.26 1.77 4.694 5.9 6.455 7.67-3.521 1.769-9.974 6.492-2.347 8.853 4.696 2.359 7.038 4.128 25.81 4.128 25.81s-24.78 9.386-31.86 9.974z"/>
  <path fill="#e8df04" d="m536.9 604.1s-2.094-7.046 0-20.05c2.097-13.01 8.384-18.42 9.955-14.09 1.571 4.333 5.238 5.959 6.809-3.253 1.574-9.212 6.179-3.778 8.275 2.725s3.252 25.46 3.252 25.46-22 8.672-28.29 9.214z"/>
  <path fill="#c8d21c" d="m536.7 605.3s-2.096-7.046 0-20.05c2.095-13.01 8.382-18.42 9.956-14.09 1.569 4.333 5.238 5.959 6.807-3.252 1.574-9.215 5.766-2.172 7.862 4.333 2.093 6.504 3.664 23.85 3.664 23.85s-22 8.672-28.29 9.214z"/>
  <path fill="url(#bi)" d="m537 594.2c-.011-1.567.041-3.935.559-7.488 1.905-13.01 7.613-18.43 9.038-14.09 1.428 4.333 6.115 6.253 7.541-2.958 1.428-9.214 5.908-2.134 7.812 4.37 1.902 6.503 1.465 11.65 1.465 11.65s-19.04 5.581-26.42 8.512z"/>
  <path fill="#e8df04" d="m595.8 579.1s-3.563-11.52 0-32.78c3.566-21.26 14.26-30.13 16.93-23.04 2.676 7.088 8.912 9.747 11.59-5.317 2.674-15.06 18.27-7.531 19.6 5.76 1.123 11.15 0 40.32 0 40.32s-37.43 14.18-48.12 15.06z"/>
  <path fill="#c8d21c" d="m593.6 580.5s-3.564-11.52 0-32.79c3.565-21.26 14.26-30.12 16.93-23.04 2.674 7.089 8.911 9.747 11.59-5.315 2.674-15.06 18.27-7.533 19.6 5.759 1.121 11.15 0 40.32 0 40.32s-37.43 14.18-48.12 15.06z"/>
  <path fill="url(#bh)" d="m638.6 525.5c-3.564-10.63-10.69-15.95-13.37-.887-2.672 15.06-11.58 9.747-14.26 2.659-2.674-7.089-9.803-.886-13.37 20.38-2.211 13.21-1.674 22.66-.95 27.92 15.36-6.703 31.76-11.36 48.37-15.6-1.212-8.957-3.818-26.69-6.43-34.48z"/>
  <path fill="url(#bg)" d="m601.6 571.6c.297-.102.556-19.3.797-21.06.494-3.617 3.499-17.28 9.822-14.31 3.453 4.756 1.416 10.98 3.27 16.24 6.982 4.291 3.587-10.53 6.694-11.8 1.568-.638 1.833 1.679 3.501 1.261.94-.237 1.883-2.186 2.315-3.013 1.1-2.113 1.342-5.8 3.443-7.309 5.781-4.15 8.616 6.871 9.27 10.4 1.099 5.955-1.763 15.46-6.875 19.17-2.245 1.629-6.673 2.156-9.29 3.001-7.645 2.468-15.33 4.844-22.95 7.412z"/>
  <path fill="#c8d21c" d="m677.5 559.5s3.513-8.601 0-19.82c-3.515-11.22-14.06-11.65-16.7-6.138-2.636 5.514-8.788 9.989-11.42 2.111-2.638-7.874-9.666 2.364-13.18 10.43s-6.151 26.43-6.151 26.43 36.91-8.642 47.45-13.02z"/>
  <path fill="url(#bf)" d="m679.1 553.4s.842-3.404-2.673-14.62c-3.513-11.22-11.17-7.286-13.81-1.773-2.636 5.514-9.392 7.433-12.03-.443-2.636-7.875-8.461 1.545-11.23 9.895-3.032 9.156-3.476 17.13-3.476 17.13s13.37-3.545 43.22-10.19z"/>
  <path fill="url(#be)" d="m677.3 554.8s1.643.627-1.611-8.726c-3.257-9.35-10.35-6.075-12.8-1.477-2.445 4.598-9.884 6.58-12.33.014-2.442-6.567-6.349-1.645-8.911 5.317-2.811 7.636-1.783 12.4-1.783 12.4s13.81-2.658 37.43-7.532z"/>
  <path fill="#e8df04" d="m713.8 510.9c-4.288 8.968-14.29 16.25-18.58 3.437-4.285-12.81-15.72 3.844-21.43 16.96-5.721 13.12-10.01 43-10.01 43s20.1-17.84 54.52-13.47v-54.68c-2.455-.377-3.69 3.063-4.501 4.759z"/>
  <path fill="#c8d21c" d="m713.8 512.6c-4.288 8.968-14.29 16.25-18.58 3.438-4.285-12.81-15.72 3.843-21.43 16.96-5.721 13.12-10.01 42.99-10.01 42.99s30.61-7.612 54.26-14.25l.267-53.32c-2.455-.377-3.69 2.477-4.501 4.172z"/>
  <path fill="url(#bd)" d="m713.7 516.4c-4.155 8.968-13.85 16.25-18 3.437-4.156-12.81-15.23 3.846-20.77 16.97-5.538 13.12-9.692 42.99-9.692 42.99s30.1-7.818 53.01-14.46v-53.11c-2.379-.375-3.765 2.474-4.551 4.17z"/>
  <path fill="url(#bb)" d="m123 622.8s35.7-9.196 81.14 5.624c33.44 10.91 67.07 28 103.6 24.29-12.38 5.145-132.2 30.13-184.8-9.885v-20.03z"/>
  <path fill="url(#ba)" d="m123 606.9s41.94-7.811 87.38 9.91c33.44 13.04 48.37 33.59 95.6 34.48-72.91 14.1-81.39-32.23-183-27.8v-16.59z"/>
  <path fill="url(#az)" d="m396 633.3c-81.1 14.2-129.5-108.3-273-111.9.009 9.414 0 1.771 0 15.95 121.2-10.63 195.6 122.6 273 95.93z"/>
  <path fill="url(#ay)" d="m398.3 635.1c-81.1 14.2-131.8-107.2-275.3-110.7.009 9.414 0 1.772 0 15.95 121.2-10.63 197.9 121.5 275.3 94.76z"/>
  <path fill="url(#ax)" d="m376.5 637.5c-80.2 9.953-127.7-97.96-253.4-85.29.121 0 0 9.118.122 13.86 126.5-15.38 174 94.05 253.3 71.43z"/>
  <path fill="#e8df04" d="m389.7 634s-2.951-7.444 0-21.19c2.953-13.74 11.8-19.47 14.02-14.88 2.214 4.578 7.379 6.296 9.593-3.437 2.214-9.735 8.118-2.292 11.07 4.578 2.952 6.872 5.165 25.19 5.165 25.19s-30.99 9.165-39.84 9.736z"/>
  <path fill="#c8d21c" d="m388.8 635.5s-2.952-7.442 0-21.19c2.952-13.74 11.8-19.46 14.02-14.88 2.213 4.576 8.12 6.805 10.33-2.927 2.214-9.735 7.984-1.511 10.93 5.359 2.951 6.871 4.556 23.9 4.556 23.9s-30.99 9.164-39.84 9.734z"/>
  <path fill="url(#aw)" d="m390.6 637.3s-2.773-5.819-.309-21.13c2.233-13.88 9.028-18.52 11.24-13.93 2.213 4.577 9.055 5.696 11.27-4.037 2.214-9.735 8.118-2.292 11.07 4.58 2.95 6.87 5.164 25.19 5.164 25.19s-29.58 8.762-38.43 9.332z"/>
  <path fill="url(#av)" d="m539.5 593.2c-.209-3.339 1.431-13.94 3.906-15.54 4.151-2.67 4.226 4.854 5.369 4.854 3.176 0 3.909-2.496 4.151-4.125.734-4.854 2.388-9.637 4.64-6.795 2.558 3.229.95 11.5 2.441 15.29-3.241 1.83-20.29 6.31-20.51 6.311z"/>
  <path fill="url(#au)" d="m343.9 645.4c-78.6-2.8-81-69.4-220.9-66.1.122 2.555 0 12.17 0 12.17 127.4-8.86 136.8 60.31 220.9 53.9z"/>
  <path fill="url(#at)" d="m313.3 650.4c-64.3.7-65.5-52.2-190.3-47.7.001 4.598 0 11.68 0 11.68 110.5-4.508 123.4 45.36 190.3 36.05z"/>
  <path fill="url(#as)" d="m123 636.1s18.77 27.62 137.3 19.64c97.63-6.57 150.2-29.12 212.1-45.19 61.86-16.06 91.91-29.63 143.8-44.93 3.982-1.172 12.04-3.365 15.81-4.396-.073.664 1.646 1.703 4.039.829 40.51-11.39 68.36-12.36 82.22-7.067 0 137.7-.365 137.7-.365 137.7s-278.9 23.56-461.5 18.62c-57.55-1.557-106.9-6.158-133.4-13.12v-62.04z"/>
  <path fill="url(#aq)" d="m123 640.5s19.96 27.98 138.5 20c97.64-6.568 146.8-27.78 208.5-44.51 34.91-9.465 58.3-18.18 77.14-24.03 21.78-6.767 39.62-13.04 66.98-22.69 10.99-3.877 16.34-3.286 18.12-2.991 42.92-11.39 71.11-11.85 85.45-6.378 0 137.7.173 137.4.173 137.4s-277.6 23.67-460.2 18.74c-57.55-1.556-108.1-7.272-134.6-14.24v-61.29z"/>
  <path fill="url(#ap)" d="m123 636.8s21.44 37.56 140 29.58c65.32-4.395 110.2-10.9 175.3-29.53 32.16-9.217 69.69-22.41 116.1-37.8 40.1-13.29 111.6-44 158-30.65-28.96-17.57-82.51-.728-129 13.37 63.27-23.04 104.1-32.12 135-23.28v145.9s-283.7 40.57-466.3 35.64c-57.55-1.557-102.1-15.3-129-30.96 0-12.08.001-72.25.001-72.25z"/>
  <path fill="url(#ao)" d="m123.7 639.8c211.5 147.1 470.5-73.25 584-59.07-107.5-33.08-374.9 205-584 59.07z"/>
  <path fill="url(#an)" d="m590.6 690.6c-66.8 8.9-130.7 31.3-222.2 40.2-146.6 14.2-242.6-26.2-245.4-27.1l-.024 29.99c63.89 22.48 294.8 26.32 378.8 22.45 132.9-6.12 216.5-21.99 216.5-21.99v-41.58c-23.69-6.833-68.39-9.848-127.7-1.976z"/>
  <path fill="#ffe71f" d="m123 702.2c226.5 93.92 304.3 3.021 595.3 11 0 58.51-.365 36.21-.365 59.22 0 0-38.71 24.89-171.6 31.01-7.985.369-28.52-.884-67.72-11.52-99.2 2.098-298.5-52.28-355.6-18.61 0-29.07-.055-71.1-.055-71.1z"/>
  <path fill="url(#am)" d="m123 705.3c227 97.58 304.3 2.771 595.3 10.74v59.4s-39.07 24.87-171.9 30.99c-7.985.368-28.52-.886-67.72-11.52-99.2 2.098-298.5-52.28-355.6-18.61 0-29.07-.056-71.01-.056-71.01z"/>
  <path fill="url(#al)" d="m410.4 779.2c17.46-29.88 35.59-40.7 71.33-48.29-58.78 6.458-78.88 51.69-78.88 51.69l7.557-3.401z"/>
  <path fill="url(#ak)" d="m389.2 779.6c15.37-26.3 30.58-36.32 62.04-43-51.74 5.684-68.69 45.99-68.69 45.99l6.651-2.994z"/>
  <path fill="url(#aj)" d="m369 780.7c14.61-25 28.65-34.19 58.55-40.54-49.19 5.404-64.88 43.39-64.88 43.39l6.324-2.849z"/>
  <path fill="url(#ai)" d="m351.5 767.3 3.363 1.05c10.83-13.75 23.16-19.47 44.2-24.11-23.42 2.669-38.29 12.69-47.56 23.06z"/>
  <path fill="url(#ah)" d="m327.6 770.4 3.363 1.05c10.83-13.75 24.55-19.8 45.6-24.44-23.42 2.67-39.69 13.02-48.96 23.39z"/>
  <path fill="url(#af)" d="m309.1 771.6 3.362 1.05c10.83-13.75 24.55-19.8 45.6-24.44-23.42 2.67-39.69 13.02-48.96 23.39z"/>
  <path fill="url(#ae)" d="m431.5 779.2c18.72-30.99 36.92-44.08 74.41-51.48-61.59 5.876-82.37 54.92-82.37 54.92l7.956-3.444z"/>
  <path fill="url(#ad)" d="m448.7 785.2c20.89-36.63 40.96-52.22 84.32-61.5-71.41 7.885-93.47 65.68-93.47 65.68l9.149-4.171z"/>
  <path fill="url(#ac)" d="m472.3 783.8c25.68-40.49 49.46-55.21 99.32-63.93-81.71 6.004-110 68.27-110 68.27l10.63-4.333z"/>
  <path fill="url(#ab)" d="m500.6 787.3c29.46-45.56 52.36-60.45 108.9-69.97-92.56 6.246-121 74.79-121 74.79l12.08-4.824z"/>
  <path fill="url(#aa)" d="m529.8 791c32.48-49.74 54.04-63.82 116.3-75.43-102 8.962-129.6 80.92-129.6 80.92l13.31-5.485z"/>
  <path fill="url(#z)" d="m564.7 799.5c33.43-59.22 61.06-75.78 129.2-84.29-112 1.33-143.6 89.88-143.6 89.88l14.41-5.582z"/>
  <path fill="url(#y)" d="m593.9 810.4 14.37-5.564c29.06-51.66 57.97-75.84 110-86.78v-2.359c-92.83 13.34-124.3 94.7-124.3 94.7z"/>
  <path fill="url(#x)" d="m642.9 814.9 14.37-5.564c18.38-32.69 36.88-54.54 60.96-68.84v-5.241c-55.18 27.68-75.33 79.65-75.33 79.65z"/>
  <path fill="#fff483" d="m123 763.6v34.11c4.86-2.27 122.3-55.42 325.3 8.711 190.7 60.25 269.9 15.95 269.9 15.95v-57.95c-151.3 88.03-295.1-50.87-595.1-.818z"/>
  <path fill="#ffe71f" d="m123 757.7v39.86c4.86-2.267 122.3-61.18 325.3 2.953 190.7 60.25 269.9 15.95 269.9 15.95v-57.95c-151.3 88.03-295.1-50.87-595.1-.819z"/>
  <path fill="#fffced" d="m584.2 336.7c-4.679 0-8.883 1.958-11.84 5.075-3.154-2.421-6.924-4.084-11.05-4.74-1.452-13.66-13.18-24.32-27.45-24.32-6.803 0-13.02 2.432-17.83 6.445-5.531-3.073-11.91-4.847-18.71-4.847-2.564 0-5.065.259-7.487.733-5.635-8.608-15.44-14.32-26.61-14.32-17.49 0-31.66 13.96-31.66 31.18 0 .216.027.426.031.64-7.849 2.073-13.69 9.048-13.83 17.45-.169 10.15 8.054 18.52 18.37 18.68 6.401.103 12.1-2.983 15.54-7.764 2.882 1.113 5.964 1.818 9.186 2.054 4.801 15.34 19.31 26.5 36.47 26.5 15.61 0 29.02-9.243 34.93-22.46.536.03 1.066.08 1.613.08.027 0 .058-.005.086-.005 2.847 10.14 12.26 17.59 23.46 17.59 10.76 0 19.88-6.884 23.1-16.42 1.19.272 2.421.43 3.694.43 8.97 0 16.24-7.156 16.24-15.99 0-8.831-7.268-15.99-16.24-15.99z"/>
  <path fill="url(#w)" d="m582.6 331.4c-4.631 0-8.796 1.958-11.73 5.075-3.121-2.421-6.856-4.084-10.94-4.739-1.438-13.67-13.06-24.32-27.18-24.32-6.735 0-12.89 2.431-17.65 6.444-5.475-3.073-11.79-4.846-18.53-4.846-2.539 0-5.018.258-7.415.733-5.581-8.608-15.28-14.32-26.35-14.32-17.32 0-31.36 13.96-31.36 31.18 0 .216.028.426.034.64-7.773 2.073-13.56 9.048-13.7 17.45-.165 10.15 7.977 18.52 18.19 18.68 6.34.103 11.99-2.982 15.39-7.764 2.854 1.113 5.907 1.819 9.096 2.054 4.753 15.34 19.12 26.5 36.11 26.5 15.46 0 28.73-9.242 34.58-22.46.53.03 1.055.079 1.595.079.03 0 .057-.005.088-.005 2.816 10.14 12.14 17.59 23.23 17.59 10.66 0 19.69-6.883 22.88-16.42 1.177.273 2.397.431 3.657.431 8.88 0 16.08-7.157 16.08-15.99 0-8.831-7.199-15.99-16.08-15.99z"/>
  <path fill="#fff" d="m428.2 327.1c-.218.018-.434.05-.646.086.307-1.375.416-2.819.293-4.296-.659-7.849-7.593-13.68-15.49-13.02-1.281.107-2.506.392-3.665.807-1.039-12.19-11.81-21.25-24.08-20.23-9.546.794-17.16 7.462-19.6 16.12-3.551.824-6.595 2.825-8.743 5.547-3.125-2.065-7.005-3.142-11.11-2.801-9.354.778-16.33 8.611-15.59 17.5.747 8.89 8.936 15.47 18.29 14.69 4.234-.352 7.973-2.161 10.74-4.849 1.765 4.42 6.278 7.37 11.29 6.954 5.407-.45 9.583-4.661 10.15-9.83.33.101.667.189 1.003.273 1.741 6.565 8.006 11.14 15.04 10.56 5.064-.421 9.28-3.415 11.49-7.575 2.172.993 4.618 1.467 7.171 1.256 2.518-.208 4.824-1.058 6.784-2.363.729 3.637 4.099 6.228 7.906 5.913 4.092-.341 7.132-3.914 6.791-7.983-.342-4.07-3.936-7.094-8.029-6.754z"/>
  <path fill="#fffced" d="m662.6 440.2c-.258.02-.515.058-.769.102.369-1.637.497-3.355.348-5.112-.783-9.342-9.032-16.28-18.43-15.5-1.525.127-2.983.467-4.36.961-1.236-14.51-14.06-25.29-28.66-24.08-11.36.944-20.42 8.879-23.33 19.19-4.225.981-7.847 3.362-10.4 6.601-3.719-2.459-8.336-3.739-13.22-3.333-11.13.924-19.44 10.25-18.55 20.82.887 10.58 10.63 18.4 21.76 17.48 5.04-.418 11.11-.338 14.4-3.537 7.424 15.36 28.81 10.93 29.7-3.544 1.936 14.78 20.5 19.49 30.3 4.726 5.347 1.772 11.63-1.401 13.96-2.954 4.751 11.81 24.06 9.156 22.28-5.317-.596-4.822-10.16-6.911-15.04-6.505z"/>
  <path fill="url(#u)" d="m668.2 437.8c-.259.022-.518.059-.768.103.366-1.636.495-3.354.347-5.113-.783-9.34-9.035-16.28-18.43-15.5-1.527.127-2.986.467-4.363.961-1.234-14.51-14.06-25.29-28.66-24.08-11.36.944-20.42 8.879-23.33 19.19-4.227.981-7.848 3.362-10.4 6.601-3.719-2.459-8.338-3.738-13.22-3.333-11.13.926-19.44 10.25-18.55 20.82.891 10.58 10.64 18.4 21.77 17.48 5.04-.42 9.489-2.571 12.78-5.77 2.103 5.259 7.471 8.769 13.44 8.273 6.434-.534 11.4-5.546 12.09-11.7.392.119.793.224 1.191.325 2.073 7.812 9.526 13.26 17.9 12.57 6.028-.502 11.04-4.065 13.67-9.015 2.583 1.181 5.496 1.746 8.532 1.494 2.998-.247 5.739-1.257 8.073-2.811.867 4.327 4.88 7.411 9.407 7.035 4.871-.405 8.487-4.657 8.081-9.499-.405-4.842-4.683-8.442-9.554-8.037z"/>
  <path fill="#fff" d="m324.2 411.3c-.368.03-.732.085-1.091.146.52-2.32.703-4.757.493-7.251-1.111-13.25-12.81-23.08-26.13-21.98-2.165.18-4.232.663-6.184 1.362-1.754-20.58-19.94-35.86-40.64-34.14-16.11 1.338-28.96 12.59-33.08 27.21-5.992 1.392-11.13 4.766-14.75 9.361-5.273-3.487-11.82-5.302-18.75-4.726-15.79 1.311-27.56 14.53-26.3 29.53s13.16 25.2 25.04 25.2c10.12 0 18.5.405 23.17-4.133 9.317 11.43 35.24 6.412 36.98-9.32.56.169 1.125.318 1.692.461-2.705 19.2 35.33 25.49 45.1 7.086 11.42 5.224 19.92 1.773 23.22-3.916 1.232 6.136 6.921 10.51 13.34 9.977 6.907-.575 12.04-6.606 11.46-13.47-.576-6.869-6.643-11.97-13.55-11.4z"/>
  <path fill="url(#t)" d="m500.6 687.7c-118.4 30.3-260.5 63.2-376.4 14.7 116.8 63.2 276.5 22.8 373.6-1.6 123.2-31.1 195.6-26.6 220.5-20v-58c-85 6.499-114 38.29-217.7 64.87z"/>
  <g fill="#fff">
   <path d="m619.4 343.4c0 5.628-4.586 10.19-10.25 10.19-5.66 0-10.25-4.561-10.25-10.19 0-5.628 4.59-10.19 10.25-10.19s10.25 4.562 10.25 10.19z"/>
   <path d="m635.9 335c0 8.075-6.584 14.62-14.7 14.62-8.121 0-14.7-6.545-14.7-14.62s6.583-14.62 14.7-14.62c8.12 0 14.7 6.544 14.7 14.62z"/>
   <path d="m649.7 343.4c0 7.586-6.181 13.73-13.81 13.73-7.63 0-13.81-6.148-13.81-13.73 0-7.586 6.183-13.73 13.81-13.73 7.63 0 13.81 6.148 13.81 13.73z"/>
   <path d="m605.1 346.5c0 4.894-3.99 8.861-8.912 8.861-4.921 0-8.911-3.967-8.911-8.861s3.99-8.861 8.911-8.861c4.922 0 8.912 3.967 8.912 8.861z"/>
   <path d="m583.8 345.6c0 2.447-1.994 4.43-4.454 4.43-2.461 0-4.456-1.983-4.456-4.43 0-2.446 1.995-4.431 4.456-4.431 2.46 0 4.454 1.985 4.454 4.431z"/>
   <path d="m657.7 331.5c0 3.915-3.194 7.089-7.128 7.089-3.938 0-7.129-3.174-7.129-7.089 0-3.914 3.191-7.089 7.129-7.089 3.934 0 7.128 3.175 7.128 7.089z"/>
  </g>
  <g fill="#fff">
   <path d="m685.1 428.8c0 5.057-4.12 9.156-9.208 9.156-5.087 0-9.207-4.099-9.207-9.156 0-5.058 4.12-9.158 9.207-9.158 5.088 0 9.208 4.1 9.208 9.158z"/>
   <path d="m703.2 432.4c0 7.257-5.914 13.14-13.21 13.14-7.299 0-13.21-5.881-13.21-13.14 0-7.255 5.915-13.14 13.21-13.14 7.297 0 13.21 5.883 13.21 13.14z"/>
   <path d="m672.3 431.6c0 4.398-3.584 7.963-8.007 7.963s-8.009-3.565-8.009-7.963 3.586-7.962 8.009-7.962 8.007 3.564 8.007 7.962z"/>
   <path d="m653.1 430.8c0 2.199-1.792 3.981-4.004 3.981s-4.003-1.782-4.003-3.981 1.791-3.981 4.003-3.981 4.004 1.782 4.004 3.981z"/>
  </g>
  <g fill="#fff">
   <path d="m331.9 401.3c0 8.654-7.055 15.67-15.76 15.67-8.703 0-15.76-7.015-15.76-15.67 0-8.653 7.054-15.67 15.76-15.67 8.702 0 15.76 7.015 15.76 15.67z"/>
   <path d="m357.3 388.4c0 12.42-10.12 22.48-22.61 22.48s-22.61-10.06-22.61-22.48 10.12-22.48 22.61-22.48 22.61 10.06 22.61 22.48z"/>
   <path d="m378.5 401.3c0 11.66-11.64 24.42-24.65 24.08-22.57-.581-27.62-15.95-28.41-22.15-1.466-11.57 16.48-23.05 29.49-23.05 13.02 0 23.57 9.454 23.57 21.12z"/>
   <path d="m310 406.1c0 7.525-6.133 13.62-13.7 13.62-7.568 0-13.7-6.099-13.7-13.62 0-7.525 6.134-13.62 13.7-13.62 7.568 0 13.7 6.099 13.7 13.62z"/>
   <path d="m390.8 382.9c0 6.02-4.908 10.9-10.96 10.9-6.053 0-10.96-4.879-10.96-10.9 0-6.018 4.908-10.9 10.96-10.9 6.053 0 10.96 4.88 10.96 10.9z"/>
  </g>
  <path fill="url(#s)" d="m374.5 367.6c-6.053 0-10.96 4.881-10.96 10.9 0 .259.021.513.039.767-3.352-2.202-7.366-3.492-11.68-3.492-.519 0-1.027.041-1.535.078-3.273-8.409-11.46-14.38-21.07-14.38-11.74 0-21.39 8.899-22.5 20.28-4.252 1.11-7.81 3.922-9.859 7.678-1.817-.884-3.85-1.394-6.01-1.394-7.568 0-13.7 6.1-13.7 13.62 0 7.526 6.133 13.62 13.7 13.62 4.49 0 8.462-2.156 10.96-5.472 2.534 1.73 5.601 2.748 8.908 2.748 5.402 0 10.17-2.707 13-6.827 1.762.437 3.594.695 5.492.695 1.205 0 2.378-.121 3.53-.301 3.449 7.029 10.68 11.88 19.08 11.88 11.73 0 21.24-9.454 21.24-21.12 0-2.794-.558-5.455-1.551-7.896.934.256 1.909.403 2.921.403 6.054 0 10.96-4.88 10.96-10.9 0-6.018-4.907-10.9-10.96-10.9z"/>
  <path fill="url(#r)" d="m173.8 358.9c0 3.407-2.777 6.169-6.202 6.169-3.427 0-6.203-2.762-6.203-6.169 0-3.406 2.776-6.169 6.203-6.169 3.425 0 6.202 2.763 6.202 6.169z"/>
  <path fill="url(#q)" d="m221.9 343c0 6.813-5.555 12.34-12.41 12.34-6.851 0-12.41-5.524-12.41-12.34 0-6.813 5.555-12.34 12.41-12.34 6.852 0 12.41 5.525 12.41 12.34z"/>
  <path fill="url(#p)" d="m211.2 354.5c0 6.814-5.554 12.34-12.41 12.34-6.852 0-12.4-5.524-12.4-12.34 0-6.813 5.553-12.34 12.4-12.34 6.852 0 12.41 5.524 12.41 12.34z"/>
  <path fill="url(#o)" d="m197.9 361.4c0 6.865-5.597 12.43-12.5 12.43-6.904 0-12.5-5.566-12.5-12.43 0-6.866 5.597-12.43 12.5-12.43 6.905 0 12.5 5.565 12.5 12.43z"/>
  <path fill="#9fdcf5" d="m208.2 349.6c0 3.175-2.589 5.75-5.781 5.75-3.196 0-5.784-2.575-5.784-5.75 0-3.176 2.588-5.75 5.784-5.75 3.192 0 5.781 2.574 5.781 5.75z"/>
  <path fill="#9fdcf5" d="m200.7 348.8c0 3.989-3.25 7.222-7.259 7.222-4.011 0-7.262-3.233-7.262-7.222 0-3.987 3.251-7.22 7.262-7.22 4.009 0 7.259 3.233 7.259 7.22z"/>
  <path fill="url(#n)" d="m223.6 352.7c0 2.854-2.327 5.168-5.197 5.168s-5.197-2.314-5.197-5.168 2.327-5.167 5.197-5.167 5.197 2.313 5.197 5.167z"/>
  <path fill="url(#m)" d="m245.9 369.6c0 3.825-3.119 6.924-6.965 6.924-3.845 0-6.964-3.099-6.964-6.924 0-3.823 3.119-6.923 6.964-6.923 3.846 0 6.965 3.1 6.965 6.923z"/>
  <path fill="url(#l)" d="m250.5 371.3c0 1.555-1.268 2.814-2.831 2.814s-2.829-1.259-2.829-2.814c0-1.552 1.266-2.812 2.829-2.812s2.831 1.26 2.831 2.812z"/>
  <path fill="#fff" d="m452 344.8c0 2.498-2.038 4.523-4.551 4.523s-4.55-2.025-4.55-4.523c0-2.499 2.037-4.524 4.55-4.524s4.551 2.025 4.551 4.524z"/>
  <path fill="#fff" d="m474.1 338.6c0 5.872-4.786 10.63-10.69 10.63-5.908 0-10.69-4.76-10.69-10.63 0-5.874 4.784-10.63 10.69-10.63s10.69 4.76 10.69 10.63z"/>
  <path fill="#fff69d" d="m328.3 659.9s63.57-4.136 172.3-40.17c24.93-8.262 53.07-18.32 83.59-28.51 16.98-5.671 34.63-11.07 53.04-16.98 34.46-8.27 57.03-11.82 74.85-5.907-12.48-7.68-37.07-8.057-72 1.279-22.7 6.069-40.91 12.28-61.51 19.18-24.67 8.256-50.69 17.53-78.85 27.19-68.11 23.35-118.5 32.1-171.4 43.92z"/>
  <path fill="url(#j)" d="m142.3 841.9c75.8-57.8 126-68.3 215.1-60.3-170.3-24.9-234.4 60.3-234.4 60.3h19.35z"/>
  <path fill="url(#i)" d="m292.8 774.9c-79.71-6.293-134.1 13.21-169.7 34.55l-.1 13.1c47.27-37.01 101.6-49.21 169.8-47.58z"/>
  <path fill="url(#h)" d="m185.6 842c68.1-45.4 128.4-61 206.6-52.1-138.5-26.7-224.3 52.1-224.3 52.1h17.65z"/>
  <path fill="url(#g)" d="m235.1 841.8c56.7-39.1 106.8-53.7 182.9-45.7-130.5-22-199.6 45.7-199.6 45.7h16.63z"/>
  <path fill="url(#f)" d="m283.8 841.8c56.9-39.1 99-48.9 170.7-33.8-112.9-35.6-187.4 33.8-187.4 33.8h16.66z"/>
  <path fill="url(#e)" d="m490.6 817.5c-84.08-26.31-146.2 6.764-172.4 24.16h18.69c49.07-29.99 89.07-37.69 153.7-24.16z"/>
  <path fill="url(#d)" d="m509.3 821.8c-60.18-12.58-107.9 4.866-136.4 19.86h19.58c41.84-21.44 87.02-24.16 116.8-19.86z"/>
  <path fill="url(#c)" d="m534.7 828.1c-45.85-7.304-85.19 2.075-109.9 13.81h18.43c35.77-16.61 70.11-14.41 91.46-13.81z"/>
  <path fill="url(#b)" d="m568.5 833.9c-34.36-5.03-63.83-.148-85.96 7.955h18.43c20.8-6.589 39.79-8.536 67.52-7.955z"/>
  <path fill="url(#a)" d="m379.1 714.8c195.9-27.2 227.8-81.9 339.2-92.7v-21.23c-105.3 12.4-178.8 75.5-339.2 113.9z"/>
  <path fill="url(#cv)" d="m123.2 766.8-.058 2.418c1.879-.818 151.5-31.31 339.9 38.4 158.7 58.71 255.2 16.83 255.2 16.83v-32.84c-151.2 87.98-291-86.77-595.1-24.8z"/>
  <path fill="url(#cu)" d="m636.4 639.8c-61.77 19.96-102.9 41.5-115.2 44.3 0 0 128.3-39.4 197.2-14.59v-47.52s-34.4 2.448-81.92 17.81z"/>
  <path fill="url(#ct)" d="m285.8 707.4c158.7 15.7 340.5-115.4 430.8-113.7-84.4-13.5-280.4 125.9-430.8 113.7z"/>
  <path fill="#fff69d" d="m589.9 607.9c-44.46 14.2-85.9 30.67-138.9 50.83-50.21 19.08-108.1 31.73-166.4 33.61 57.07 2.222 124.5-15.64 170.1-31.18 75.9-27.96 94.28-36.1 135.2-53.26z"/>
 </g>
</svg>
