<?xml version="1.0" encoding="UTF-8" standalone="no"?>
<!-- Created with Inkscape (http://www.inkscape.org/) -->

<svg
   width="512"
   height="512"
   viewBox="0 0 135.46667 135.46667"
   version="1.1"
   id="svg5"
   xmlns:xlink="http://www.w3.org/1999/xlink"
   xmlns="http://www.w3.org/2000/svg"
   xmlns:svg="http://www.w3.org/2000/svg">
  <defs
     id="defs2" />
  <g
     id="layer1">
    <path
       style="fill:#a8b6ca;fill-opacity:1;stroke-width:0.264229"
       id="rect48"
       width="125.41251"
       height="98.689583"
       x="4.3656249"
       y="18.653126"
       d="M 9.3656249,18.653126 H 124.77814 a 5,5 45 0 1 5,5 v 88.689584 a 5,5 135 0 1 -5,5 H 9.3656249 a 5,5 45 0 1 -5,-5 V 23.653126 a 5,5 135 0 1 5,-5 z" />
    <circle
       style="fill:#a8b6ca;fill-opacity:1;stroke-width:0.266286"
       id="path1392"
       cx="67.733337"
       cy="67.733337"
       r="54.504169" />
    <path
       style="fill:#000000;fill-opacity:1;stroke-width:0.266286"
       id="path1392-9"
       d="M 68.647537,117.26351 A 49.538609,49.538609 0 0 1 24.95914,92.72217 49.538609,49.538609 0 0 1 25.036346,42.612815 49.538609,49.538609 0 0 1 68.800159,18.206217 l -1.066822,49.52712 z" />
    <path
       style="fill:#dd4ebc;fill-opacity:1;stroke-width:0.317339"
       id="path13269"
       d="M 18.977694,72.067613 A 48.947918,48.947918 0 0 1 34.190569,32.085317 l 33.542768,35.64802 z" />
    <path
       style="fill:#dd4ebc;fill-opacity:1;stroke-width:0.317339"
       id="path13269-1"
       d="m 34.665623,31.644213 a 48.947918,48.947918 0 0 1 9.774544,-6.961159 l 23.29317,43.050283 z" />
    <path
       style="fill:#ed4da3;fill-opacity:1;stroke-width:0.317339"
       id="path13269-9"
       d="M 50.444589,113.52633 A 48.947918,48.947918 0 0 1 19.030836,72.628749 l 48.702501,-4.895412 z" />
    <path
       style="fill:#dd4ebc;fill-opacity:1;stroke-width:0.317339"
       id="path13269-0"
       d="m 59.169076,115.9262 a 48.947918,48.947918 0 0 1 -8.278492,-2.23396 L 67.733337,67.733337 Z" />
    <path
       style="fill:#dd4ebc;fill-opacity:1;stroke-width:0.317339"
       id="path13269-0-6"
       d="m 68.029991,116.68036 a 48.947918,48.947918 0 0 1 -8.156566,-0.63429 l 7.859912,-48.312733 z" />
    <path
       style="fill:#000000;fill-opacity:1;stroke-width:0.19519"
       id="path1392-2-9"
       d="M 68.471152,107.67861 A 39.952084,39.952084 0 0 1 33.240965,87.893824 39.952084,39.952084 0 0 1 33.290486,47.488364 39.952084,39.952084 0 0 1 68.569063,27.789996 l -0.835726,39.943341 z" />
    <circle
       style="fill:#a8b6ca;fill-opacity:1;stroke-width:0.19526"
       id="path1392-2"
       cx="67.733337"
       cy="67.733337"
       r="39.422916" />
    <path
       style="fill:#aa95ff;fill-opacity:1"
       id="path23683"
       d="M 32.87243,49.354428 A 39.408974,39.408974 0 0 1 40.726232,39.033451 L 67.733337,67.733337 Z" />
    <circle
       style="fill:#dfe6ec;fill-opacity:1;stroke-width:0.249956"
       id="path2024-2"
       cx="67.733337"
       cy="67.733337"
       r="28.004986" />
    <circle
       style="fill:#fffdfb;fill-opacity:1;stroke-width:0.249956"
       id="path2024"
       cx="67.733337"
       cy="67.733337"
       r="21.695833" />
    <circle
       style="fill:#000000;fill-opacity:1;stroke-width:0.594127"
       id="path1606"
       cx="67.73333"
       cy="67.733337"
       r="20.637501" />
  </g>
  <g
     id="layer3"
     style="display:inline">
    <path
       style="fill:#c3d5ee;fill-opacity:1"
       id="path43687"
       d="m 244.9878,241.8775 -23.46002,13.30066 -25.99372,-7.18374 -13.30066,-23.46001 7.18374,-25.99373 23.46001,-13.30066 25.99373,7.18374 13.30066,23.46002 z"
       transform="matrix(0.26218617,0.08244339,-0.08244339,0.26218617,28.940636,-7.909351)" />
    <path
       style="color:#000000;fill:#000000;stroke-width:0.256244;-inkscape-stroke:none"
       d="m 64.912123,70.501642 -5.023937,2.580143 -1.528979,-7.060355 3.89958,-6.026804 5.2196,6.730892"
       id="path55779" />
    <path
       style="color:#000000;display:inline;fill:#000000;stroke-width:0.250582;-inkscape-stroke:none"
       d="m 77.092971,69.371728 -3.96232,6.176384 -7.997688,-4.991845 2.567746,-3.790501 7.889991,-4.398651"
       id="path55779-5" />
    <path
       style="color:#000000;display:inline;fill:#000000;stroke-width:0.251434;-inkscape-stroke:none"
       d="m 65.996999,77.121179 -6.023454,-3.926106 4.997025,-2.526867 8.005545,4.970339"
       id="path55779-3" />
    <path
       style="color:#000000;display:inline;fill:#000000;stroke-width:0.235226;-inkscape-stroke:none"
       d="m 67.655067,66.585277 -5.2153,-6.687171 7.01411,-1.523166 6.005464,3.89661"
       id="path55779-3-2" />
  </g>
</svg>
