<?xml version="1.0" encoding="UTF-8" standalone="no"?>
<!-- Created with Inkscape (http://www.inkscape.org/) -->

<svg
   width="512"
   height="512"
   version="1.1"
   viewBox="0 0 135.47 135.47"
   id="svg1002"
   sodipodi:docname="logo0002.svg"
   inkscape:version="1.1 (c68e22c387, 2021-05-23)"
   xmlns:inkscape="http://www.inkscape.org/namespaces/inkscape"
   xmlns:sodipodi="http://sodipodi.sourceforge.net/DTD/sodipodi-0.dtd"
   xmlns="http://www.w3.org/2000/svg"
   xmlns:svg="http://www.w3.org/2000/svg">
  <defs
     id="defs1006" />
  <sodipodi:namedview
     id="namedview1004"
     pagecolor="#ffffff"
     bordercolor="#666666"
     borderopacity="1.0"
     inkscape:pageshadow="2"
     inkscape:pageopacity="0.0"
     inkscape:pagecheckerboard="0"
     showgrid="false"
     inkscape:zoom="3.4101562"
     inkscape:cx="165.38832"
     inkscape:cy="246.32303"
     inkscape:window-width="3840"
     inkscape:window-height="2066"
     inkscape:window-x="-11"
     inkscape:window-y="-11"
     inkscape:window-maximized="1"
     inkscape:current-layer="g986" />
  <g
     id="g986">
    <path
       style="color:#000000;fill:#a8b6ca;stroke-width:0;-inkscape-stroke:none"
       d="m 4.3656,23.653 c 0.032256,29.842738 -0.06455,59.689199 0.048468,89.52961 0.8896682,4.75708 6.5651577,4.31764 10.2692477,4.16039 36.976831,-0.0323 73.95739,0.0646 110.931894,-0.0485 4.75708,-0.88966 4.31764,-6.56515 4.16039,-10.26924 -0.0323,-28.07017 0.0645,-56.144059 -0.0485,-84.211899 -0.88966,-4.757081 -6.56515,-4.317644 -10.26924,-4.160391 -36.697431,0 -73.394861,0 -110.09229,0 -2.6624061,-0.07867 -5.0783788,2.337967 -5,5 z"
       id="path956"
       sodipodi:nodetypes="sssssssss" />
    <path
       style="color:#000000;fill:#a8b6ca;stroke-width:0;-inkscape-stroke:none"
       d="M 67.733002,13.229 C 42.614462,12.752648 18.876531,32.085597 14.28531,56.801878 9.6414118,78.652687 19.920363,102.73829 39.150883,114.22497 58.846004,126.56371 86.339801,124.40852 103.65622,108.80338 121.10771,93.785178 127.29188,67.262159 117.85848,46.182408 109.46322,26.650079 89.131323,12.855565 67.733002,13.229 Z"
       id="circle958"
       sodipodi:nodetypes="sssss" />
    <path
       style="color:#000000;fill:#000000;stroke-width:0;-inkscape-stroke:none"
       d="m 67.73441,67.73 c 0.3556,-16.509 0.7112,-33.018 1.0668,-49.527 -22.707329,-0.928577 -44.518839,16.004383 -49.344369,38.206189 -5.120905,20.97836 5.198553,44.685331 24.427724,54.743141 7.539429,4.13123 16.162594,6.29345 24.763435,6.10767 -0.30453,-16.51 -0.60906,-33.02 -0.91359,-49.53 z"
       id="path960"
       sodipodi:nodetypes="cccccc" />
    <g
       stroke-width="0"
       id="g972">
      <path
         style="color:#000000;fill:#dd4ebc;stroke-width:0;-inkscape-stroke:none"
         d="m 18.978,72.068 c -1.154073,-14.109524 3.568276,-29.449325 14.645772,-38.730232 1.94681,-1.578616 3.404381,2.521487 5.123129,3.59004 C 48.409267,47.196539 58.071634,57.465269 67.734,67.734 51.482,69.178667 35.23,70.623333 18.978,72.068 Z"
         id="path962" />
      <path
         style="color:#000000;fill:#dd4ebc;stroke-width:0;-inkscape-stroke:none"
         d="m 34.666,31.644 c 3.032134,-2.637781 6.290391,-4.958054 9.7745,-6.9612 7.764333,14.35 15.528667,28.7 23.293,43.05 C 56.711,55.7032 45.6885,43.6736 34.666,31.644 Z"
         id="path964" />
      <path
         style="color:#000000;fill:#ed4da3;stroke-width:0;-inkscape-stroke:none"
         d="M 50.445,113.53 C 34.363783,107.55933 21.247976,92.317741 19.748299,74.963061 18.448727,71.314507 22.838781,72.645446 24.984414,72.03359 39.234276,70.60126 53.484138,69.16893 67.734,67.7366 61.971,83.001067 56.208,98.265533 50.445,113.53 Z"
         id="path966" />
      <path
         style="color:#000000;fill:#dd4ebc;stroke-width:0;-inkscape-stroke:none"
         d="M 59.169,115.93 C 56.4095,115.18533 53.65,114.44067 50.8905,113.696 56.504833,98.376333 62.119167,83.056667 67.7335,67.737 64.878667,83.801333 62.023833,99.865667 59.169,115.93 Z"
         id="path968" />
      <path
         style="color:#000000;fill:#dd4ebc;stroke-width:0;-inkscape-stroke:none"
         d="m 68.03,116.68 c -2.718867,-0.21143 -5.437733,-0.42286 -8.1566,-0.63429 2.619967,-16.104333 5.239933,-32.208667 7.8599,-48.313 0.0989,16.315763 0.1978,32.63153 0.2967,48.94729 z"
         id="path970" />
    </g>
    <path
       style="color:#000000;fill:#000000;stroke-width:0;-inkscape-stroke:none"
       d="M 67.73379,67.735 C 68.012367,54.420667 68.290943,41.106333 68.56952,27.792 48.739736,26.906413 30.065785,43.149639 28.020906,62.873775 c -2.550891,18.846556 10.229272,38.563615 28.799816,43.272885 3.225089,0.37659 12.534622,4.34631 11.595074,-1.45786 C 68.188461,92.370869 67.961125,80.052935 67.73379,67.735 Z"
       id="path974"
       sodipodi:nodetypes="cccccc" />
    <path
       style="color:#000000;fill:#a8b6ca;stroke-width:0;-inkscape-stroke:none"
       d="M 67.733002,28.310001 C 47.744701,27.794751 29.364454,44.942543 28.356322,64.899591 26.803093,83.311463 39.890198,101.69603 57.925999,105.98102 75.306594,110.59849 95.174143,101.73949 103.01305,85.467156 111.53871,68.911611 106.44212,46.625368 91.035408,35.923404 84.330457,31.018023 76.051199,28.258567 67.733002,28.310001 Z"
       id="circle976"
       sodipodi:nodetypes="sssss" />
    <path
       style="color:#000000;fill:#aa95ff;-inkscape-stroke:none"
       d="M 67.7328,67.733 C 58.730467,58.166333 49.728133,48.599667 40.7258,39.033 38.567616,42.126588 31.168406,46.830247 34.930155,50.439082 45.86437,56.203721 56.798585,61.968361 67.7328,67.733 Z"
       id="path978"
       sodipodi:nodetypes="cccc" />
    <path
       style="color:#000000;fill:#dfe6ec;stroke-width:0;-inkscape-stroke:none"
       d="M 67.733002,39.728003 C 51.660131,39.20495 37.612844,54.915571 39.839174,70.841285 41.293236,85.810356 56.215146,97.857171 71.19685,95.574695 85.936383,93.929022 97.765185,79.296115 95.579822,64.487465 94.003546,50.691858 81.757371,39.436168 67.733002,39.728003 Z"
       id="circle980"
       sodipodi:nodetypes="sssss" />
    <path
       style="color:#000000;fill:#fffdfb;stroke-width:0;-inkscape-stroke:none"
       d="M 67.733002,46.037003 C 54.062183,45.488861 42.724848,60.255753 46.70971,73.348066 49.772348,85.727757 64.85791,93.191991 76.47795,87.66371 88.024267,82.797035 93.276324,67.188648 86.352714,56.55874 82.501542,50.17754 75.230512,45.913051 67.733002,46.037003 Z"
       id="circle982"
       sodipodi:nodetypes="sssss" />
    <path
       style="color:#000000;fill:#000000;stroke-width:0;-inkscape-stroke:none"
       d="m 67.733002,47.095001 c -13.000956,-0.539298 -23.80981,13.564701 -19.985659,26.002956 2.948152,12.164022 18.190661,19.160718 29.27084,13.142607 11.21534,-5.35316 15.138899,-21.533137 7.038079,-31.154703 -3.851118,-4.949488 -10.026333,-8.071147 -16.32326,-7.99086 z"
       id="circle984"
       sodipodi:nodetypes="sssss" />
  </g>
  <g
     id="g1000">
    <path
       transform="matrix(.26219 .082443 -.082443 .26219 28.941 -7.9094)"
       d="m244.99 241.88-23.46 13.301-25.994-7.1837-13.301-23.46 7.1837-25.994 23.46-13.301 25.994 7.1837 13.301 23.46z"
       fill="#c3d5ee"
       id="path988" />
    <g
       id="g998">
      <path
         d="m64.912 70.502-5.0239 2.5801-1.529-7.0604 3.8996-6.0268 5.2196 6.7309"
         fill="#000000"
         stroke-width="0"
         style="-inkscape-stroke:none"
         id="path990" />
      <path
         d="m77.093 69.372-3.9623 6.1764-7.9977-4.9918 2.5677-3.7905 7.89-4.3987"
         fill="#000000"
         stroke-width="0"
         style="-inkscape-stroke:none"
         id="path992" />
      <path
         d="m65.997 77.121-6.0235-3.9261 4.997-2.5269 8.0055 4.9703"
         fill="#000000"
         stroke-width="0"
         style="-inkscape-stroke:none"
         id="path994" />
      <path
         d="m67.655 66.585-5.2153-6.6872 7.0141-1.5232 6.0055 3.8966"
         fill="#000000"
         stroke-width="0"
         style="-inkscape-stroke:none"
         id="path996" />
    </g>
  </g>
</svg>
